# Alias OBJ Model File
# Exported from SketchUp, (c) 2000-2012 Trimble Navigation Limited
# File units = inches

mtllib tree.mtl

g Mesh1 Model

usemtl Wood_Board_Cork
v 7.625 0 -13.2069
vt -0.7625 1.32069
vn 0 -1 -0
v 15.25 0 -0
vt -1.525 0
v 7.625 0 13.2069
vt -0.7625 -1.32069
v -7.625 0 13.2069
vt 0.7625 -1.32069
v -15.25 0 -1.86752e-15
vt 1.525 1.86752e-16
v -7.625 0 -13.2069
vt 0.7625 1.32069
f 1/1/1 2/2/1 3/3/1 4/4/1 5/5/1 6/6/1 

vt 0.7625 -0.425806
vn 0.819779 0.322412 -0.4733
v 4.875 13.9846 -8.44375
vt 0.4875 1.05154
v 9.75 13.9846 -0
vt -0.4875 1.05154
vt -0.7625 -0.425806
f 1/7/2 7/8/2 8/9/2 2/10/2 

vn 7.92933e-17 0.322412 -0.946599
v -4.875 13.9846 -8.44375
f 6/7/3 9/8/3 7/9/3 1/10/3 

vn -0.819779 0.322412 -0.4733
v -9.75 13.9846 -1.19399e-15
f 9/9/4 6/10/4 5/7/4 10/8/4 

vn -0.819779 0.322412 0.4733
v -4.875 13.9846 8.44375
f 10/9/5 5/10/5 4/7/5 11/8/5 

vn -6.17677e-16 0.322412 0.946599
v 4.875 13.9846 8.44375
f 3/7/6 12/8/6 11/9/6 4/10/6 

vn 0.819779 0.322412 0.4733
f 2/7/7 8/8/7 12/9/7 3/10/7 

usemtl FrontColor
vt -4.875 13.9846
vn -0.866025 0 -0.5
vt 4.875 13.9846
v 4.875 131.485 8.44375
vt 4.875 131.485
v 9.75 131.485 -0
vt -4.875 131.485
f 8/11/8 12/12/8 13/13/8 14/14/8 

vn 5.46571e-16 0 -1
v -4.875 131.485 8.44375
f 12/11/9 11/12/9 15/13/9 13/14/9 

vn 0.866025 0 -0.5
v -9.75 131.485 -1.19399e-15
f 11/11/10 10/12/10 16/13/10 15/14/10 

vn 0.866025 0 0.5
v -4.875 131.485 -8.44375
f 10/11/11 9/12/11 17/13/11 16/14/11 

vn 0 0 1
v 4.875 131.485 -8.44375
f 9/11/12 7/12/12 18/13/12 17/14/12 

vn -0.866025 0 0.5
f 7/11/13 8/12/13 14/13/13 18/14/13 

vt -4.875 8.44375
vt -9.75 0
vt -4.875 -8.44375
vt 4.875 -8.44375
vt 9.75 1.19399e-15
vt 4.875 8.44375
f 18/15/1 14/16/1 13/17/1 15/18/1 16/19/1 17/20/1 

usemtl Vegetation_Grass_Artificial
vt -0.203125 0.351823
v 26.375 131.485 -45.6828
vt -1.09896 1.90345
vt -0.40625 0
f 18/21/1 19/22/1 14/23/1

vt 0.203125 0.351823
f 17/24/1 19/22/1 18/21/1

v -26.375 131.485 -45.6828
vt 1.09896 1.90345
f 17/24/1 20/25/1 19/22/1

vt 0.40625 4.97496e-17
f 16/26/1 20/25/1 17/24/1

v -26.375 131.485 45.6828
vt 1.09896 -1.90345
f 21/27/1 20/25/1 16/26/1

v -52.75 131.485 -0
vt 2.19792 0
f 20/25/1 21/27/1 22/28/1

vt 1.09896 4.67987
vn -0.827981 0.29314 0.478035
v -19.3095 171.398 33.4451
vt 0.804564 6.41933
v -38.6191 171.398 -0
vt -0.804564 6.41933
vt -1.09896 4.67987
f 21/29/14 23/30/14 24/31/14 22/32/14 

v 26.375 131.485 45.6828
vn 5.32855e-16 0.29314 0.95607
v 19.3095 171.398 33.4451
f 25/29/15 26/30/15 23/31/15 21/32/15 

vn 0.827981 0.29314 0.478035
v 52.75 131.485 -6.4598e-15
v 38.6191 171.398 -4.72932e-15
f 26/31/16 25/32/16 27/29/16 28/30/16 

vt -1.09896 -1.90345
vt -2.19792 2.69158e-16
f 25/33/1 19/22/1 27/34/1

f 25/33/1 14/23/1 19/22/1

vt -0.203125 -0.351823
f 25/33/1 13/35/1 14/23/1

vt 0.203125 -0.351823
f 25/33/1 15/36/1 13/35/1

f 21/27/1 15/36/1 25/33/1

f 15/36/1 21/27/1 16/26/1

vn 0.827981 0.29314 -0.478035
v 19.3095 171.398 -33.4451
f 28/31/17 27/32/17 19/29/17 29/30/17 

vn -1.55466e-16 0.29314 -0.95607
v -19.3095 171.398 -33.4451
f 20/29/18 30/30/18 29/31/18 19/32/18 

vn -0.827981 0.29314 -0.478035
f 22/29/19 24/30/19 30/31/19 20/32/19 

usemtl FrontColor
vt -19.3095 33.4451
vn 0 1 -0
vt -38.6191 0
vt -19.3095 -33.4451
vt 19.3095 -33.4451
vt 38.6191 4.72932e-15
vt 19.3095 33.4451
f 30/37/20 24/38/20 23/39/20 26/40/20 28/41/20 29/42/20 

v -26.375 171.398 -45.6828
vt -26.375 45.6828
f 31/43/20 24/38/20 30/37/20

v -52.75 171.398 -6.4598e-15
vt -52.75 6.4598e-15
f 24/38/20 31/43/20 32/44/20

vt 26.375 119.475
vn 0.728488 -0.540746 0.420593
v -19.3095 190.435 -33.4451
vt 19.3095 142.106
v -38.6191 190.435 -0
vt -19.3095 142.106
vt -26.375 119.475
f 31/45/21 33/46/21 34/47/21 32/48/21 

v 26.375 171.398 -45.6828
vn -1.29456e-16 -0.540746 0.841186
v 19.3095 190.435 -33.4451
f 35/45/22 36/46/22 33/47/22 31/48/22 

vn -0.728488 -0.540746 0.420593
v 52.75 171.398 -0
v 38.6191 190.435 -4.72932e-15
f 36/47/23 35/48/23 37/45/23 38/46/23 

vt 26.375 45.6828
vt 52.75 0
f 35/49/20 28/41/20 37/50/20

f 35/49/20 29/42/20 28/41/20

f 35/49/20 30/37/20 29/42/20

f 31/43/20 30/37/20 35/49/20

v 26.375 171.398 45.6828
vt 26.375 -45.6828
f 28/41/20 39/51/20 37/50/20

f 26/40/20 39/51/20 28/41/20

f 23/39/20 39/51/20 26/40/20

v -26.375 171.398 45.6828
vt -26.375 -45.6828
f 23/39/20 40/52/20 39/51/20

f 24/38/20 40/52/20 23/39/20

f 40/52/20 24/38/20 32/44/20

v -19.3095 190.435 33.4451
vn 0.728488 -0.540746 -0.420593
f 41/47/24 40/48/24 32/45/24 34/46/24 

v 19.3095 190.435 33.4451
vn 4.56294e-16 -0.540746 -0.841186
f 42/47/25 39/48/25 40/45/25 41/46/25 

vn -0.728488 -0.540746 -0.420593
f 38/47/26 37/48/26 39/45/26 42/46/26 

vt -19.3095 190.435
vt 19.3095 190.435
v 19.3095 210.435 33.4451
vt 19.3095 210.435
v 38.6191 210.435 -4.72932e-15
vt -19.3095 210.435
f 38/53/8 42/54/8 43/55/8 44/56/8 

vn 5.51962e-16 0 -1
v -19.3095 210.435 33.4451
f 42/53/27 41/54/27 45/55/27 43/56/27 

v -38.6191 210.435 -0
f 41/53/10 34/54/10 46/55/10 45/56/10 

v -19.3095 210.435 -33.4451
f 34/53/11 33/54/11 47/55/11 46/56/11 

vn -1.83987e-16 0 1
v 19.3095 210.435 -33.4451
f 33/53/28 36/54/28 48/55/28 47/56/28 

f 36/53/13 38/54/13 44/55/13 48/56/13 

vt -38.6191 4.72932e-15
vt 38.6191 0
f 48/37/1 44/57/1 43/39/1 45/40/1 46/58/1 47/42/1 

v 0 234.607 -0
vt 0 137.427
vn -0.507295 -0.810475 0.292887
vt -19.3095 96.1608
vt 19.3095 96.1608
f 49/59/29 48/60/29 44/61/29

vt 3.15544e-30 137.427
vn -1.06431e-16 -0.810475 0.585774
f 49/62/30 47/60/30 48/61/30

vt -7.10543e-15 137.427
vn 0.507295 -0.810475 0.292887
f 49/63/31 46/60/31 47/61/31

vt 7.10543e-15 137.427
vn 0.507295 -0.810475 -0.292887
f 49/64/32 45/60/32 46/61/32

vn 3.2266e-16 -0.810475 -0.585774
f 45/61/33 49/59/33 43/60/33

vn -0.507295 -0.810475 -0.292887
f 43/61/34 49/59/34 44/60/34

